<svg xmlns="http://www.w3.org/2000/svg" xmlns:xlink="http://www.w3.org/1999/xlink" width="1000" zoomAndPan="magnify" viewBox="0 0 750 749.999995" height="1000" preserveAspectRatio="xMidYMid meet" version="1.0"><defs><clipPath id="a218c364a2"><path d="M 375 0 C 167.894531 0 0 167.894531 0 375 C 0 582.105469 167.894531 750 375 750 C 582.105469 750 750 582.105469 750 375 C 750 167.894531 582.105469 0 375 0 Z M 375 0 " clip-rule="nonzero"/></clipPath><clipPath id="8bb5e5c604"><path d="M 0 0 L 750 0 L 750 750 L 0 750 Z M 0 0 " clip-rule="nonzero"/></clipPath><clipPath id="dcd74f21a4"><path d="M 375 0 C 167.894531 0 0 167.894531 0 375 C 0 582.105469 167.894531 750 375 750 C 582.105469 750 750 582.105469 750 375 C 750 167.894531 582.105469 0 375 0 Z M 375 0 " clip-rule="nonzero"/></clipPath><clipPath id="faf9144550"><rect x="0" width="750" y="0" height="750"/></clipPath></defs><g clip-path="url(#a218c364a2)"><g transform="matrix(1, 0, 0, 1, 0, -0.000000000000042435)"><g clip-path="url(#faf9144550)"><g clip-path="url(#8bb5e5c604)"><g clip-path="url(#dcd74f21a4)"><rect x="-165" width="1080" fill="#d52120" height="1079.999992" y="-164.999999" fill-opacity="1"/></g></g></g></g></g><path fill="#ffffff" d="M 545.183594 517.472656 L 515.601562 517.472656 L 515.601562 456.277344 L 515.570312 456.277344 L 515.570312 378.664062 C 520.214844 378.238281 524.671875 377.171875 528.855469 375.550781 C 553.0625 366.171875 564.253906 338.183594 553.914062 314.375 L 515.34375 225.582031 C 509.140625 211.300781 495.054688 202.0625 479.484375 202.0625 L 270.304688 202.0625 C 254.734375 202.0625 240.652344 211.300781 234.445312 225.578125 L 195.855469 314.390625 C 185.746094 337.660156 196.160156 365.097656 219.523438 374.984375 C 224.097656 376.917969 229.023438 378.175781 234.171875 378.652344 L 234.171875 517.472656 L 202.992188 517.472656 C 195.386719 517.472656 189.21875 524.285156 189.21875 532.683594 C 189.21875 541.085938 195.386719 547.894531 202.992188 547.894531 L 545.183594 547.894531 C 552.789062 547.894531 558.957031 541.085938 558.957031 532.683594 C 558.957031 524.285156 552.789062 517.472656 545.183594 517.472656 Z M 284.171875 349.125 C 291.792969 366.632812 309.238281 378.875 329.550781 378.875 C 349.84375 378.875 367.273438 366.65625 374.910156 349.175781 C 382.542969 366.65625 399.972656 378.875 420.269531 378.875 C 440.5625 378.875 457.992188 366.65625 465.625 349.175781 C 470.097656 359.414062 477.933594 367.84375 487.734375 373.074219 L 487.734375 442.359375 C 487.734375 450.046875 481.503906 456.277344 473.820312 456.277344 L 275.925781 456.277344 C 268.238281 456.277344 262.007812 450.046875 262.007812 442.359375 L 262.007812 373.09375 C 271.839844 367.855469 279.699219 359.398438 284.171875 349.125 Z M 284.171875 349.125 " fill-opacity="1" fill-rule="nonzero"/></svg>