<svg xmlns="http://www.w3.org/2000/svg" xmlns:xlink="http://www.w3.org/1999/xlink" width="1000" zoomAndPan="magnify" viewBox="0 0 750 749.999995" height="1000" preserveAspectRatio="xMidYMid meet" version="1.0"><defs><clipPath id="342abfd13e"><path d="M 375 0 C 167.894531 0 0 167.894531 0 375 C 0 582.105469 167.894531 750 375 750 C 582.105469 750 750 582.105469 750 375 C 750 167.894531 582.105469 0 375 0 Z M 375 0 " clip-rule="nonzero"/></clipPath><clipPath id="b5f8aa2079"><path d="M 0 0 L 750 0 L 750 750 L 0 750 Z M 0 0 " clip-rule="nonzero"/></clipPath><clipPath id="73b37adee4"><path d="M 375 0 C 167.894531 0 0 167.894531 0 375 C 0 582.105469 167.894531 750 375 750 C 582.105469 750 750 582.105469 750 375 C 750 167.894531 582.105469 0 375 0 Z M 375 0 " clip-rule="nonzero"/></clipPath><clipPath id="b83250f8f4"><rect x="0" width="750" y="0" height="750"/></clipPath><clipPath id="e05fbbea99"><path d="M 135.316406 379 L 269 379 L 269 460 L 135.316406 460 Z M 135.316406 379 " clip-rule="nonzero"/></clipPath><clipPath id="22900e038e"><path d="M 481 379 L 614.566406 379 L 614.566406 460 L 481 460 Z M 481 379 " clip-rule="nonzero"/></clipPath></defs><g clip-path="url(#342abfd13e)"><g transform="matrix(1, 0, 0, 1, 0, -0.000000000000042435)"><g clip-path="url(#b83250f8f4)"><g clip-path="url(#b5f8aa2079)"><g clip-path="url(#73b37adee4)"><rect x="-165" width="1080" fill="#d52120" height="1079.999992" y="-164.999999" fill-opacity="1"/></g></g></g></g></g><path fill="#ffffff" d="M 255.15625 320.070312 C 255.15625 321.378906 255.09375 322.683594 254.964844 323.984375 C 254.835938 325.289062 254.644531 326.582031 254.390625 327.863281 C 254.136719 329.148438 253.816406 330.414062 253.4375 331.667969 C 253.058594 332.917969 252.617188 334.148438 252.117188 335.355469 C 251.617188 336.566406 251.058594 337.746094 250.441406 338.902344 C 249.824219 340.054688 249.152344 341.175781 248.425781 342.261719 C 247.699219 343.351562 246.921875 344.402344 246.089844 345.414062 C 245.261719 346.421875 244.382812 347.390625 243.457031 348.316406 C 242.53125 349.242188 241.5625 350.121094 240.554688 350.949219 C 239.542969 351.78125 238.492188 352.558594 237.402344 353.285156 C 236.316406 354.011719 235.195312 354.683594 234.042969 355.300781 C 232.886719 355.917969 231.707031 356.476562 230.496094 356.976562 C 229.289062 357.476562 228.058594 357.917969 226.808594 358.296875 C 225.554688 358.675781 224.289062 358.996094 223.003906 359.25 C 221.722656 359.503906 220.429688 359.695312 219.125 359.824219 C 217.824219 359.953125 216.519531 360.015625 215.210938 360.015625 C 213.902344 360.015625 212.597656 359.953125 211.296875 359.824219 C 209.992188 359.695312 208.699219 359.503906 207.417969 359.25 C 206.132812 358.996094 204.867188 358.675781 203.613281 358.296875 C 202.363281 357.917969 201.132812 357.476562 199.921875 356.976562 C 198.714844 356.476562 197.535156 355.917969 196.378906 355.300781 C 195.226562 354.683594 194.105469 354.011719 193.015625 353.285156 C 191.929688 352.558594 190.878906 351.78125 189.867188 350.949219 C 188.855469 350.121094 187.890625 349.242188 186.964844 348.316406 C 186.039062 347.390625 185.160156 346.421875 184.332031 345.414062 C 183.5 344.402344 182.722656 343.351562 181.996094 342.261719 C 181.269531 341.175781 180.597656 340.054688 179.980469 338.902344 C 179.363281 337.746094 178.804688 336.566406 178.304688 335.355469 C 177.804688 334.148438 177.363281 332.917969 176.984375 331.667969 C 176.605469 330.414062 176.285156 329.148438 176.03125 327.863281 C 175.777344 326.582031 175.582031 325.289062 175.457031 323.984375 C 175.328125 322.683594 175.261719 321.378906 175.261719 320.070312 C 175.261719 318.761719 175.328125 317.457031 175.457031 316.15625 C 175.582031 314.851562 175.777344 313.558594 176.03125 312.277344 C 176.285156 310.992188 176.605469 309.726562 176.984375 308.472656 C 177.363281 307.222656 177.804688 305.992188 178.304688 304.78125 C 178.804688 303.574219 179.363281 302.394531 179.980469 301.238281 C 180.597656 300.085938 181.269531 298.964844 181.996094 297.875 C 182.722656 296.789062 183.5 295.738281 184.332031 294.726562 C 185.160156 293.714844 186.039062 292.75 186.964844 291.824219 C 187.890625 290.898438 188.855469 290.019531 189.867188 289.191406 C 190.878906 288.359375 191.929688 287.582031 193.015625 286.855469 C 194.105469 286.128906 195.226562 285.457031 196.378906 284.839844 C 197.535156 284.222656 198.714844 283.664062 199.921875 283.164062 C 201.132812 282.664062 202.363281 282.222656 203.613281 281.84375 C 204.867188 281.464844 206.132812 281.144531 207.417969 280.890625 C 208.699219 280.636719 209.992188 280.445312 211.296875 280.316406 C 212.597656 280.1875 213.902344 280.121094 215.210938 280.121094 C 216.519531 280.121094 217.824219 280.1875 219.125 280.316406 C 220.429688 280.445312 221.722656 280.636719 223.003906 280.890625 C 224.289062 281.144531 225.554688 281.464844 226.808594 281.84375 C 228.058594 282.222656 229.289062 282.664062 230.496094 283.164062 C 231.707031 283.664062 232.886719 284.222656 234.042969 284.839844 C 235.195312 285.457031 236.316406 286.128906 237.402344 286.855469 C 238.492188 287.582031 239.542969 288.359375 240.554688 289.191406 C 241.5625 290.019531 242.53125 290.898438 243.457031 291.824219 C 244.382812 292.75 245.261719 293.714844 246.089844 294.726562 C 246.921875 295.738281 247.699219 296.789062 248.425781 297.875 C 249.152344 298.964844 249.824219 300.085938 250.441406 301.238281 C 251.058594 302.394531 251.617188 303.574219 252.117188 304.78125 C 252.617188 305.992188 253.058594 307.222656 253.4375 308.472656 C 253.816406 309.726562 254.136719 310.992188 254.390625 312.277344 C 254.644531 313.558594 254.835938 314.851562 254.964844 316.15625 C 255.09375 317.457031 255.15625 318.761719 255.15625 320.070312 Z M 255.15625 320.070312 " fill-opacity="1" fill-rule="nonzero"/><g clip-path="url(#e05fbbea99)"><path fill="#ffffff" d="M 268.539062 387.980469 C 248.367188 403.160156 235.183594 427.527344 235.183594 454.890625 L 235.183594 459.886719 L 150.296875 459.886719 C 142.105469 459.886719 135.316406 453.09375 135.316406 444.90625 L 135.316406 434.917969 C 135.316406 404.558594 159.882812 379.992188 190.242188 379.992188 L 240.175781 379.992188 C 250.5625 379.992188 260.351562 382.988281 268.539062 387.980469 Z M 268.539062 387.980469 " fill-opacity="1" fill-rule="nonzero"/></g><path fill="#ffffff" d="M 574.734375 320.070312 C 574.734375 321.378906 574.671875 322.683594 574.542969 323.984375 C 574.414062 325.289062 574.222656 326.582031 573.96875 327.863281 C 573.714844 329.148438 573.394531 330.414062 573.015625 331.667969 C 572.636719 332.917969 572.195312 334.148438 571.695312 335.355469 C 571.195312 336.566406 570.636719 337.746094 570.019531 338.902344 C 569.402344 340.054688 568.730469 341.175781 568.003906 342.261719 C 567.277344 343.351562 566.5 344.402344 565.667969 345.414062 C 564.839844 346.421875 563.960938 347.390625 563.035156 348.316406 C 562.109375 349.242188 561.140625 350.121094 560.132812 350.949219 C 559.121094 351.78125 558.070312 352.558594 556.980469 353.285156 C 555.894531 354.011719 554.773438 354.683594 553.621094 355.300781 C 552.464844 355.917969 551.285156 356.476562 550.074219 356.976562 C 548.867188 357.476562 547.636719 357.917969 546.386719 358.296875 C 545.132812 358.675781 543.867188 358.996094 542.582031 359.25 C 541.296875 359.503906 540.007812 359.695312 538.703125 359.824219 C 537.402344 359.953125 536.097656 360.015625 534.789062 360.015625 C 533.480469 360.015625 532.175781 359.953125 530.875 359.824219 C 529.570312 359.695312 528.277344 359.503906 526.996094 359.25 C 525.710938 358.996094 524.445312 358.675781 523.191406 358.296875 C 521.941406 357.917969 520.710938 357.476562 519.5 356.976562 C 518.292969 356.476562 517.113281 355.917969 515.957031 355.300781 C 514.804688 354.683594 513.683594 354.011719 512.59375 353.285156 C 511.507812 352.558594 510.457031 351.78125 509.445312 350.949219 C 508.433594 350.121094 507.46875 349.242188 506.542969 348.316406 C 505.617188 347.390625 504.738281 346.421875 503.910156 345.414062 C 503.078125 344.402344 502.300781 343.351562 501.574219 342.261719 C 500.847656 341.175781 500.175781 340.054688 499.558594 338.902344 C 498.941406 337.746094 498.382812 336.566406 497.882812 335.355469 C 497.382812 334.148438 496.941406 332.917969 496.5625 331.667969 C 496.183594 330.414062 495.863281 329.148438 495.609375 327.863281 C 495.355469 326.582031 495.160156 325.289062 495.035156 323.984375 C 494.90625 322.683594 494.839844 321.378906 494.839844 320.070312 C 494.839844 318.761719 494.90625 317.457031 495.035156 316.15625 C 495.160156 314.851562 495.355469 313.558594 495.609375 312.277344 C 495.863281 310.992188 496.183594 309.726562 496.5625 308.472656 C 496.941406 307.222656 497.382812 305.992188 497.882812 304.78125 C 498.382812 303.574219 498.941406 302.394531 499.558594 301.238281 C 500.175781 300.085938 500.847656 298.964844 501.574219 297.875 C 502.300781 296.789062 503.078125 295.738281 503.910156 294.726562 C 504.738281 293.714844 505.617188 292.75 506.542969 291.824219 C 507.46875 290.898438 508.433594 290.019531 509.445312 289.191406 C 510.457031 288.359375 511.507812 287.582031 512.59375 286.855469 C 513.683594 286.128906 514.804688 285.457031 515.957031 284.839844 C 517.113281 284.222656 518.292969 283.664062 519.5 283.164062 C 520.710938 282.664062 521.941406 282.222656 523.191406 281.84375 C 524.445312 281.464844 525.710938 281.144531 526.996094 280.890625 C 528.277344 280.636719 529.570312 280.445312 530.875 280.316406 C 532.175781 280.1875 533.480469 280.121094 534.789062 280.121094 C 536.097656 280.121094 537.402344 280.1875 538.703125 280.316406 C 540.007812 280.445312 541.296875 280.636719 542.582031 280.890625 C 543.867188 281.144531 545.132812 281.464844 546.386719 281.84375 C 547.636719 282.222656 548.867188 282.664062 550.074219 283.164062 C 551.285156 283.664062 552.464844 284.222656 553.621094 284.839844 C 554.773438 285.457031 555.894531 286.128906 556.980469 286.855469 C 558.070312 287.582031 559.121094 288.359375 560.132812 289.191406 C 561.140625 290.019531 562.109375 290.898438 563.035156 291.824219 C 563.960938 292.75 564.839844 293.714844 565.667969 294.726562 C 566.5 295.738281 567.277344 296.789062 568.003906 297.875 C 568.730469 298.964844 569.402344 300.085938 570.019531 301.238281 C 570.636719 302.394531 571.195312 303.574219 571.695312 304.78125 C 572.195312 305.992188 572.636719 307.222656 573.015625 308.472656 C 573.394531 309.726562 573.714844 310.992188 573.96875 312.277344 C 574.222656 313.558594 574.414062 314.851562 574.542969 316.15625 C 574.671875 317.457031 574.734375 318.761719 574.734375 320.070312 Z M 574.734375 320.070312 " fill-opacity="1" fill-rule="nonzero"/><g clip-path="url(#22900e038e)"><path fill="#ffffff" d="M 614.683594 434.917969 L 614.683594 444.90625 C 614.683594 453.09375 607.890625 459.886719 599.703125 459.886719 L 514.816406 459.886719 L 514.816406 454.890625 C 514.816406 427.527344 501.632812 403.160156 481.460938 387.980469 C 489.648438 382.988281 499.433594 379.992188 509.820312 379.992188 L 559.753906 379.992188 C 590.117188 379.992188 614.683594 404.558594 614.683594 434.917969 Z M 614.683594 434.917969 " fill-opacity="1" fill-rule="nonzero"/></g><path fill="#ffffff" d="M 434.921875 310.082031 C 434.921875 312.046875 434.824219 314.003906 434.632812 315.957031 C 434.441406 317.910156 434.152344 319.847656 433.769531 321.773438 C 433.386719 323.699219 432.910156 325.597656 432.339844 327.476562 C 431.769531 329.355469 431.109375 331.199219 430.359375 333.015625 C 429.609375 334.828125 428.769531 336.597656 427.84375 338.328125 C 426.921875 340.0625 425.914062 341.742188 424.820312 343.375 C 423.730469 345.003906 422.5625 346.578125 421.320312 348.097656 C 420.074219 349.613281 418.757812 351.066406 417.371094 352.453125 C 415.984375 353.839844 414.53125 355.15625 413.011719 356.402344 C 411.496094 357.648438 409.921875 358.816406 408.289062 359.90625 C 406.65625 360.996094 404.976562 362.003906 403.246094 362.929688 C 401.515625 363.855469 399.742188 364.691406 397.929688 365.441406 C 396.117188 366.195312 394.273438 366.855469 392.394531 367.425781 C 390.515625 367.992188 388.613281 368.46875 386.691406 368.851562 C 384.765625 369.234375 382.824219 369.523438 380.871094 369.714844 C 378.917969 369.90625 376.960938 370.003906 375 370.003906 C 373.039062 370.003906 371.078125 369.90625 369.125 369.714844 C 367.171875 369.523438 365.234375 369.234375 363.308594 368.851562 C 361.386719 368.46875 359.484375 367.992188 357.605469 367.425781 C 355.726562 366.855469 353.882812 366.195312 352.070312 365.441406 C 350.253906 364.691406 348.484375 363.855469 346.753906 362.929688 C 345.023438 362.003906 343.339844 360.996094 341.710938 359.90625 C 340.078125 358.816406 338.503906 357.648438 336.984375 356.402344 C 335.46875 355.15625 334.015625 353.839844 332.628906 352.453125 C 331.242188 351.066406 329.925781 349.613281 328.679688 348.097656 C 327.433594 346.578125 326.265625 345.003906 325.175781 343.375 C 324.085938 341.742188 323.078125 340.0625 322.152344 338.328125 C 321.230469 336.597656 320.390625 334.828125 319.640625 333.015625 C 318.890625 331.199219 318.230469 329.355469 317.660156 327.476562 C 317.089844 325.597656 316.613281 323.699219 316.230469 321.773438 C 315.847656 319.847656 315.558594 317.910156 315.367188 315.957031 C 315.175781 314.003906 315.078125 312.046875 315.078125 310.082031 C 315.078125 308.121094 315.175781 306.164062 315.367188 304.210938 C 315.558594 302.257812 315.847656 300.316406 316.230469 298.394531 C 316.613281 296.46875 317.089844 294.566406 317.660156 292.6875 C 318.230469 290.8125 318.890625 288.964844 319.640625 287.152344 C 320.390625 285.339844 321.230469 283.566406 322.152344 281.835938 C 323.078125 280.105469 324.085938 278.425781 325.175781 276.792969 C 326.265625 275.160156 327.433594 273.585938 328.679688 272.070312 C 329.925781 270.554688 331.242188 269.101562 332.628906 267.710938 C 334.015625 266.324219 335.46875 265.007812 336.984375 263.765625 C 338.503906 262.519531 340.078125 261.351562 341.710938 260.261719 C 343.339844 259.171875 345.023438 258.164062 346.753906 257.238281 C 348.484375 256.3125 350.253906 255.476562 352.070312 254.722656 C 353.882812 253.972656 355.726562 253.3125 357.605469 252.742188 C 359.484375 252.171875 361.386719 251.695312 363.308594 251.3125 C 365.234375 250.929688 367.171875 250.644531 369.125 250.449219 C 371.078125 250.257812 373.039062 250.164062 375 250.164062 C 376.960938 250.164062 378.917969 250.257812 380.871094 250.449219 C 382.824219 250.644531 384.765625 250.929688 386.691406 251.3125 C 388.613281 251.695312 390.515625 252.171875 392.394531 252.742188 C 394.273438 253.3125 396.117188 253.972656 397.929688 254.722656 C 399.742188 255.476562 401.515625 256.3125 403.246094 257.238281 C 404.976562 258.164062 406.65625 259.171875 408.289062 260.261719 C 409.921875 261.351562 411.496094 262.519531 413.011719 263.765625 C 414.53125 265.007812 415.984375 266.324219 417.371094 267.710938 C 418.757812 269.101562 420.074219 270.554688 421.320312 272.070312 C 422.5625 273.585938 423.730469 275.160156 424.820312 276.792969 C 425.914062 278.425781 426.921875 280.105469 427.84375 281.835938 C 428.769531 283.566406 429.609375 285.339844 430.359375 287.152344 C 431.109375 288.964844 431.769531 290.8125 432.339844 292.6875 C 432.910156 294.566406 433.386719 296.46875 433.769531 298.394531 C 434.152344 300.316406 434.441406 302.257812 434.632812 304.210938 C 434.824219 306.164062 434.921875 308.121094 434.921875 310.082031 Z M 434.921875 310.082031 " fill-opacity="1" fill-rule="nonzero"/><path fill="#ffffff" d="M 429.925781 399.964844 L 320.070312 399.964844 C 289.773438 399.964844 265.144531 424.59375 265.144531 454.890625 L 265.144531 484.851562 C 265.144531 493.121094 271.855469 499.832031 280.125 499.832031 L 469.875 499.832031 C 478.144531 499.832031 484.855469 493.121094 484.855469 484.851562 L 484.855469 454.890625 C 484.855469 424.59375 460.226562 399.964844 429.925781 399.964844 Z M 429.925781 399.964844 " fill-opacity="1" fill-rule="nonzero"/></svg>