<svg xmlns="http://www.w3.org/2000/svg" xmlns:xlink="http://www.w3.org/1999/xlink" width="1000" zoomAndPan="magnify" viewBox="0 0 750 749.999995" height="1000" preserveAspectRatio="xMidYMid meet" version="1.0"><defs><clipPath id="d128701a77"><path d="M 375 0 C 167.894531 0 0 167.894531 0 375 C 0 582.105469 167.894531 750 375 750 C 582.105469 750 750 582.105469 750 375 C 750 167.894531 582.105469 0 375 0 Z M 375 0 " clip-rule="nonzero"/></clipPath><clipPath id="700cb954a1"><path d="M 0 0 L 750 0 L 750 750 L 0 750 Z M 0 0 " clip-rule="nonzero"/></clipPath><clipPath id="be0d117fd2"><path d="M 375 0 C 167.894531 0 0 167.894531 0 375 C 0 582.105469 167.894531 750 375 750 C 582.105469 750 750 582.105469 750 375 C 750 167.894531 582.105469 0 375 0 Z M 375 0 " clip-rule="nonzero"/></clipPath><clipPath id="76e12ed5af"><rect x="0" width="750" y="0" height="750"/></clipPath><clipPath id="50c752ac6f"><path d="M 237.9375 225 L 512.4375 225 L 512.4375 525 L 237.9375 525 Z M 237.9375 225 " clip-rule="nonzero"/></clipPath></defs><g clip-path="url(#d128701a77)"><g transform="matrix(1, 0, 0, 1, 0, -0.000000000000042435)"><g clip-path="url(#76e12ed5af)"><g clip-path="url(#700cb954a1)"><g clip-path="url(#be0d117fd2)"><rect x="-165" width="1080" fill="#d52120" height="1079.999992" y="-164.999999" fill-opacity="1"/></g></g></g></g></g><g clip-path="url(#50c752ac6f)"><path fill="#ffffff" d="M 419.019531 394.238281 C 446.085938 378.648438 464.359375 349.449219 464.359375 316.039062 C 464.359375 266.308594 423.898438 225.84375 374.164062 225.84375 C 324.433594 225.84375 283.972656 266.308594 283.972656 316.039062 C 283.972656 349.695312 302.511719 379.085938 329.90625 394.582031 C 276.410156 413.335938 237.910156 464.464844 237.910156 524.480469 L 257.238281 524.480469 C 257.238281 459.28125 310.054688 406.234375 374.972656 406.234375 C 439.890625 406.234375 492.703125 459.28125 492.703125 524.480469 L 512.03125 524.480469 C 512.03125 464.085938 473.046875 412.699219 419.019531 394.238281 Z M 303.300781 316.039062 C 303.300781 276.960938 335.089844 245.171875 374.164062 245.171875 C 413.242188 245.171875 445.03125 276.960938 445.03125 316.039062 C 445.03125 355.117188 413.242188 386.90625 374.164062 386.90625 C 335.089844 386.90625 303.300781 355.113281 303.300781 316.039062 Z M 303.300781 316.039062 " fill-opacity="1" fill-rule="nonzero"/></g></svg>