<svg xmlns="http://www.w3.org/2000/svg" xmlns:xlink="http://www.w3.org/1999/xlink" width="1000" zoomAndPan="magnify" viewBox="0 0 750 749.999995" height="1000" preserveAspectRatio="xMidYMid meet" version="1.0"><defs><clipPath id="1b0f5ecdde"><path d="M 375 0 C 167.894531 0 0 167.894531 0 375 C 0 582.105469 167.894531 750 375 750 C 582.105469 750 750 582.105469 750 375 C 750 167.894531 582.105469 0 375 0 Z M 375 0 " clip-rule="nonzero"/></clipPath><clipPath id="2083080a60"><path d="M 0 0 L 750 0 L 750 750 L 0 750 Z M 0 0 " clip-rule="nonzero"/></clipPath><clipPath id="290d7be990"><path d="M 375 0 C 167.894531 0 0 167.894531 0 375 C 0 582.105469 167.894531 750 375 750 C 582.105469 750 750 582.105469 750 375 C 750 167.894531 582.105469 0 375 0 Z M 375 0 " clip-rule="nonzero"/></clipPath><clipPath id="1118e6cfe5"><rect x="0" width="750" y="0" height="750"/></clipPath><clipPath id="956fa1adcf"><path d="M 225 228.375 L 525 228.375 L 525 521.625 L 225 521.625 Z M 225 228.375 " clip-rule="nonzero"/></clipPath></defs><g clip-path="url(#1b0f5ecdde)"><g transform="matrix(1, 0, 0, 1, 0, -0.000000000000042435)"><g clip-path="url(#1118e6cfe5)"><g clip-path="url(#2083080a60)"><g clip-path="url(#290d7be990)"><rect x="-165" width="1080" fill="#d52120" height="1079.999992" y="-164.999999" fill-opacity="1"/></g></g></g></g></g><g clip-path="url(#956fa1adcf)"><path fill="#ffffff" d="M 368.398438 228.597656 C 356.394531 230.289062 345.019531 235.074219 335.449219 242.511719 C 332.574219 244.757812 326.464844 251.277344 323.921875 254.773438 C 319.101562 261.511719 315.34375 270.199219 313.46875 278.886719 C 312.730469 282.421875 312.621094 283.859375 312.621094 291 C 312.65625 297.996094 312.769531 299.617188 313.46875 302.78125 C 314.71875 308.488281 316.707031 313.976562 319.46875 319.460938 C 328.597656 337.722656 346.898438 350.425781 367.773438 353.039062 L 371.34375 353.480469 L 371.34375 359.8125 C 371.34375 367.214844 370.867188 369.828125 368.878906 373.914062 C 367.292969 377.191406 363.503906 381.3125 360.519531 383.042969 C 353.964844 386.835938 345.757812 387.203125 339.203125 383.929688 C 333.605469 381.167969 329.960938 377.117188 327.679688 371.078125 L 326.648438 368.316406 L 326.351562 346.082031 L 328.269531 345.96875 L 330.144531 345.859375 L 327.347656 343.539062 C 321.898438 338.972656 315.34375 330.507812 311.699219 323.214844 C 306.730469 313.347656 304.335938 303.003906 304.335938 291.589844 L 304.335938 285.625 L 285.484375 285.738281 C 266.929688 285.882812 266.5625 285.882812 264.023438 286.730469 C 259.789062 288.128906 255.886719 290.816406 253.417969 294.09375 C 252.71875 295.015625 249.664062 300.023438 246.644531 305.175781 C 243.625 310.332031 239.757812 316.882812 238.066406 319.71875 C 227.128906 338.128906 226.394531 339.453125 225.695312 342.175781 C 224.957031 344.902344 224.996094 364.894531 225.730469 368.058594 C 226.835938 372.699219 230.1875 377.890625 233.941406 380.761719 C 238.46875 384.257812 243.144531 385.917969 248.558594 385.917969 C 253.785156 385.917969 258.386719 384.371094 262.476562 381.242188 C 263.433594 380.503906 264.207031 380.136719 264.207031 380.394531 C 264.207031 381.09375 262.179688 384.371094 260.671875 386.136719 C 258.019531 389.230469 252.351562 392.066406 248.890625 392.066406 L 247.636719 392.066406 L 247.636719 493.679688 L 242.003906 493.679688 C 236.703125 493.679688 236.261719 493.71875 234.457031 494.636719 C 232.394531 495.667969 230.777344 497.289062 229.523438 499.683594 C 228.75 501.117188 228.675781 501.707031 228.675781 507.671875 L 228.675781 514.113281 L 229.820312 516.140625 C 230.445312 517.242188 231.660156 518.714844 232.507812 519.34375 C 235.78125 521.882812 223.523438 521.660156 375.945312 521.589844 L 514.011719 521.476562 L 515.519531 520.667969 C 517.878906 519.417969 519.09375 518.238281 520.269531 516.066406 C 521.339844 514.1875 521.375 513.929688 521.484375 508.40625 C 521.59375 503.328125 521.558594 502.480469 520.859375 500.640625 C 519.828125 497.953125 517.949219 495.816406 515.59375 494.636719 C 513.789062 493.71875 513.386719 493.679688 508.046875 493.679688 L 502.414062 493.679688 L 502.414062 443.058594 C 502.414062 402.851562 502.304688 392.394531 501.972656 392.285156 C 501.714844 392.210938 500.425781 391.953125 499.136719 391.734375 C 494.09375 390.777344 488.976562 386.875 486.621094 382.199219 C 485.992188 380.945312 485.476562 379.839844 485.476562 379.730469 C 485.476562 379.621094 486.363281 380.210938 487.429688 381.054688 C 489.566406 382.785156 493.578125 384.738281 496.339844 385.4375 C 498.84375 386.027344 504.734375 385.953125 507.273438 385.289062 C 514.820312 383.265625 521.152344 377.300781 523.65625 369.863281 C 524.652344 366.882812 524.652344 366.699219 524.796875 355.761719 C 524.945312 341.332031 525.09375 341.917969 519.238281 332.050781 C 517.621094 329.328125 515.335938 325.5 514.195312 323.585938 C 511.875 319.753906 502.230469 303.335938 498.988281 297.8125 C 496.484375 293.503906 493.246094 290.226562 489.75 288.386719 C 485.035156 285.882812 485.402344 285.921875 464.601562 285.773438 L 445.714844 285.589844 L 445.714844 291.332031 C 445.714844 300.316406 444.425781 307.753906 441.480469 315.667969 C 437.246094 327.046875 430.914062 336.285156 422.003906 344.128906 L 419.796875 346.042969 L 423.699219 346.042969 L 423.550781 357.164062 C 423.402344 367.472656 423.332031 368.464844 422.59375 370.453125 C 421.269531 374.023438 419.574219 376.859375 417.402344 379.070312 C 414.75 381.792969 412.46875 383.300781 408.75 384.773438 C 405.953125 385.878906 405.472656 385.953125 401.167969 385.953125 C 397.152344 385.953125 396.234375 385.804688 393.875 384.996094 C 388.242188 382.972656 383.605469 378.882812 381.101562 373.804688 C 379.1875 369.828125 378.707031 367.175781 378.707031 359.8125 L 378.707031 353.515625 L 381.578125 353.257812 C 406.46875 351.050781 427.96875 333.15625 435.183594 308.671875 C 441.628906 286.695312 435.40625 261.953125 419.425781 246.121094 C 408.015625 234.78125 393.472656 228.707031 377.050781 228.410156 C 373.625 228.339844 369.722656 228.410156 368.398438 228.597656 Z M 403.558594 255.621094 C 404.222656 255.914062 404.957031 256.464844 405.179688 256.871094 C 405.472656 257.425781 405.585938 268.578125 405.585938 293.6875 L 405.585938 329.734375 L 404.773438 330.765625 C 403.226562 332.753906 400.320312 333.304688 397.667969 332.089844 C 394.648438 330.726562 394.722656 331.023438 394.722656 319.867188 C 394.722656 311.433594 394.796875 309.890625 395.277344 309.558594 C 395.753906 309.261719 395.71875 309.152344 395.089844 308.820312 C 393.800781 308.085938 389.972656 303.851562 388.683594 301.679688 C 384.78125 295.199219 383.347656 285.035156 385.152344 276.457031 C 387.285156 266.332031 393.800781 257.570312 400.796875 255.4375 C 402.125 255.03125 402.160156 255.066406 403.558594 255.621094 Z M 347.082031 257.3125 C 348.703125 258.195312 348.886719 259.300781 348.886719 269.019531 C 348.886719 277.746094 348.921875 278.261719 349.660156 279.183594 C 350.210938 279.882812 350.761719 280.140625 351.648438 280.140625 C 352.53125 280.140625 353.082031 279.882812 353.636719 279.183594 C 354.371094 278.261719 354.40625 277.746094 354.40625 269.019531 C 354.40625 262.984375 354.554688 259.558594 354.8125 259.042969 C 355.953125 256.796875 358.679688 256.246094 360.628906 257.902344 L 361.773438 258.859375 L 361.773438 268.210938 C 361.773438 275.90625 361.882812 277.785156 362.324219 278.667969 C 362.949219 279.917969 364.347656 280.398438 365.785156 279.917969 C 367.515625 279.292969 367.664062 278.484375 367.664062 268.433594 L 367.664062 259.082031 L 368.730469 258.011719 C 370.535156 256.210938 373.441406 256.722656 374.621094 259.042969 C 374.878906 259.597656 375.027344 263.832031 375.027344 272.296875 C 375.027344 286.140625 374.769531 288.128906 372.742188 292.289062 C 371.417969 295.050781 367.921875 298.769531 365.527344 299.984375 L 363.980469 300.757812 L 363.980469 315.449219 C 363.980469 329.253906 363.945312 330.136719 363.28125 330.726562 C 362.730469 331.242188 361.882812 331.316406 357.683594 331.242188 L 352.75 331.132812 L 352.308594 329.84375 C 352.015625 328.921875 351.867188 324.359375 351.832031 314.566406 L 351.832031 300.574219 L 349.953125 299.46875 C 347.632812 298.105469 344.984375 295.199219 343.65625 292.585938 C 341.632812 288.644531 341.523438 287.429688 341.523438 272.667969 L 341.523438 259.082031 L 342.589844 258.011719 C 343.730469 256.871094 345.644531 256.578125 347.082031 257.3125 Z M 318.328125 358.488281 C 318.328125 364.5625 318.214844 366.292969 317.589844 368.648438 C 316.523438 372.847656 314.535156 376.34375 311.515625 379.363281 C 305.734375 385.144531 297.636719 387.425781 289.902344 385.476562 C 282.910156 383.671875 277.902344 379.511719 274.550781 372.734375 L 273.1875 370.011719 L 272.5625 371.078125 C 271.828125 372.332031 269.726562 373.949219 269.726562 373.25 C 269.726562 373.03125 270.171875 371.632812 270.722656 370.195312 C 271.679688 367.691406 271.714844 367.214844 271.863281 359.371094 L 272.011719 351.199219 L 318.328125 351.199219 Z M 477.746094 358.082031 C 477.746094 366.292969 477.304688 368.871094 475.132812 373.289062 C 473.917969 375.753906 472.921875 377.082031 470.605469 379.398438 C 467.179688 382.824219 463.753906 384.703125 459.265625 385.660156 C 456.132812 386.359375 450.980469 386.175781 448.183594 385.289062 C 442.621094 383.523438 437.171875 379.105469 434.597656 374.171875 C 432.351562 369.902344 431.722656 366.550781 431.722656 358.265625 L 431.722656 351.199219 L 477.746094 351.199219 Z M 293.878906 421.996094 L 293.917969 436.246094 L 272.195312 436.246094 L 272.414062 431.902344 C 272.894531 421.777344 277.679688 414.082031 286.1875 409.773438 C 287.953125 408.890625 292.480469 407.527344 293.292969 407.636719 C 293.769531 407.710938 293.84375 409.589844 293.878906 421.996094 Z M 304.261719 408.082031 C 310.742188 409.625 316.558594 414.265625 319.800781 420.414062 C 321.714844 424.167969 322.378906 427.042969 322.378906 432.085938 L 322.378906 436.246094 L 301.023438 436.246094 L 301.023438 421.886719 C 301.023438 410.65625 301.132812 407.527344 301.5 407.527344 C 301.722656 407.527344 302.972656 407.785156 304.261719 408.082031 Z M 449.027344 421.886719 L 449.027344 436.246094 L 427.195312 436.246094 L 427.417969 431.902344 C 427.675781 426.820312 428.335938 424.167969 430.179688 420.414062 C 432.902344 414.890625 439.566406 409.554688 445.605469 408.117188 C 449.433594 407.195312 449.027344 405.578125 449.027344 421.886719 Z M 461.953125 409.039062 C 463.496094 409.625 465.558594 410.65625 466.554688 411.285156 C 469.167969 412.976562 472.554688 416.585938 474.175781 419.347656 C 476.457031 423.210938 477.121094 425.789062 477.304688 431.347656 L 477.453125 436.246094 L 456.023438 436.246094 L 456.023438 407.453125 L 457.605469 407.710938 C 458.453125 407.859375 460.40625 408.449219 461.953125 409.039062 Z M 383.421875 410.585938 C 390.378906 413.015625 396.453125 418.867188 398.957031 425.457031 C 400.722656 430.097656 400.761719 431.164062 400.796875 463.378906 L 400.796875 493.679688 L 349.253906 493.679688 L 349.253906 462.902344 C 349.253906 435.878906 349.328125 431.828125 349.84375 429.507812 C 352.015625 419.9375 359.011719 412.644531 368.472656 410.105469 C 372.449219 409 379.664062 409.257812 383.421875 410.585938 Z M 293.953125 456.015625 L 293.84375 468.460938 L 284.382812 468.570312 L 274.917969 468.644531 L 273.703125 467.578125 L 272.488281 466.507812 L 272.269531 443.609375 L 294.027344 443.609375 Z M 322.378906 454.984375 L 322.378906 466.398438 L 321.492188 467.429688 L 320.609375 468.460938 L 310.816406 468.570312 L 301.023438 468.683594 L 301.023438 443.609375 L 322.378906 443.609375 Z M 448.953125 456.015625 L 448.84375 468.460938 L 429.515625 468.460938 L 428.519531 467.429688 L 427.492188 466.4375 L 427.378906 455.023438 L 427.234375 443.609375 L 449.027344 443.609375 Z M 477.488281 454.285156 C 477.5625 460.066406 477.453125 465.332031 477.304688 465.992188 C 477.082031 466.765625 476.53125 467.46875 475.792969 467.910156 C 474.726562 468.570312 473.878906 468.644531 465.339844 468.644531 L 456.023438 468.644531 L 456.023438 443.609375 L 466.664062 443.683594 L 477.339844 443.792969 Z M 477.488281 454.285156 " fill-opacity="1" fill-rule="nonzero"/></g><path fill="#ffffff" d="M 385.113281 448.359375 C 381.136719 450.789062 381.246094 456.164062 385.335938 458.261719 C 387.984375 459.625 390.527344 458.960938 392.441406 456.457031 C 394.132812 454.140625 393.289062 449.90625 390.785156 448.394531 C 389.199219 447.4375 386.625 447.4375 385.113281 448.359375 Z M 385.113281 448.359375 " fill-opacity="1" fill-rule="nonzero"/></svg>