<svg xmlns="http://www.w3.org/2000/svg" xmlns:xlink="http://www.w3.org/1999/xlink" width="1000" zoomAndPan="magnify" viewBox="0 0 750 749.999995" height="1000" preserveAspectRatio="xMidYMid meet" version="1.0"><defs><clipPath id="d9c054f64a"><path d="M 375 0 C 167.894531 0 0 167.894531 0 375 C 0 582.105469 167.894531 750 375 750 C 582.105469 750 750 582.105469 750 375 C 750 167.894531 582.105469 0 375 0 Z M 375 0 " clip-rule="nonzero"/></clipPath><clipPath id="ff06cf639e"><path d="M 0 0 L 750 0 L 750 750 L 0 750 Z M 0 0 " clip-rule="nonzero"/></clipPath><clipPath id="1be4d01633"><path d="M 375 0 C 167.894531 0 0 167.894531 0 375 C 0 582.105469 167.894531 750 375 750 C 582.105469 750 750 582.105469 750 375 C 750 167.894531 582.105469 0 375 0 Z M 375 0 " clip-rule="nonzero"/></clipPath><clipPath id="eae5847814"><rect x="0" width="750" y="0" height="750"/></clipPath><clipPath id="f6ce9f3824"><path d="M 207.824219 237.375 L 507.824219 237.375 L 507.824219 512.625 L 207.824219 512.625 Z M 207.824219 237.375 " clip-rule="nonzero"/></clipPath></defs><g clip-path="url(#d9c054f64a)"><g transform="matrix(1, 0, 0, 1, 0, -0.000000000000042435)"><g clip-path="url(#eae5847814)"><g clip-path="url(#ff06cf639e)"><g clip-path="url(#1be4d01633)"><rect x="-165" width="1080" fill="#d52120" height="1079.999992" y="-164.999999" fill-opacity="1"/></g></g></g></g></g><g clip-path="url(#f6ce9f3824)"><path fill="#ffffff" d="M 499.199219 291.464844 L 293.382812 281.195312 L 292.265625 272.636719 C 290.984375 262.847656 286.226562 253.90625 278.871094 247.449219 C 271.515625 241 262.035156 237.445312 252.167969 237.445312 L 216.902344 237.445312 C 211.890625 237.445312 207.828125 241.507812 207.828125 246.519531 C 207.828125 251.53125 211.890625 255.59375 216.902344 255.59375 L 252.167969 255.59375 C 263.503906 255.59375 272.800781 263.75 274.273438 274.992188 L 293.425781 421.445312 C 294.703125 431.230469 299.460938 440.179688 306.816406 446.636719 C 314.171875 453.09375 323.65625 456.652344 333.523438 456.652344 L 485.085938 456.652344 C 490.09375 456.652344 494.15625 452.589844 494.15625 447.578125 C 494.15625 442.566406 490.09375 438.507812 485.085938 438.507812 L 333.519531 438.507812 C 322.183594 438.507812 312.886719 430.339844 311.417969 419.089844 L 311.316406 418.332031 L 453.277344 418.332031 C 472.15625 418.332031 487.84375 405.300781 491.421875 386.644531 L 507.65625 302.238281 C 508.152344 299.660156 507.507812 296.992188 505.886719 294.925781 C 504.261719 292.859375 501.824219 291.597656 499.199219 291.464844 Z M 480.507812 347.320312 L 433.582031 344.976562 L 437.5 306.554688 L 487.867188 309.066406 Z M 362.179688 341.414062 L 358.222656 302.597656 L 419.351562 305.648438 L 415.4375 344.070312 Z M 413.59375 362.148438 L 409.714844 400.1875 L 368.171875 400.1875 L 364.039062 359.675781 Z M 339.886719 301.683594 L 343.847656 340.5 L 300.859375 338.355469 L 295.773438 299.480469 Z M 303.25 356.644531 L 345.707031 358.761719 L 349.933594 400.1875 L 308.945312 400.1875 Z M 453.277344 400.1875 L 427.953125 400.1875 L 431.738281 363.054688 L 477.046875 365.316406 L 473.601562 383.222656 C 471.683594 393.210938 463.328125 400.1875 453.277344 400.1875 Z M 347.578125 462.132812 C 333.660156 462.132812 322.339844 473.453125 322.339844 487.371094 C 322.339844 501.289062 333.660156 512.613281 347.578125 512.613281 C 361.496094 512.613281 372.820312 501.289062 372.820312 487.371094 C 372.820312 473.453125 361.496094 462.132812 347.578125 462.132812 Z M 347.578125 494.46875 C 343.667969 494.46875 340.484375 491.285156 340.484375 487.371094 C 340.484375 483.460938 343.667969 480.277344 347.578125 480.277344 C 351.492188 480.277344 354.675781 483.460938 354.675781 487.371094 C 354.675781 491.285156 351.492188 494.46875 347.578125 494.46875 Z M 439.921875 462.132812 C 426.003906 462.132812 414.683594 473.453125 414.683594 487.371094 C 414.683594 501.289062 426.003906 512.613281 439.921875 512.613281 C 453.839844 512.613281 465.164062 501.289062 465.164062 487.371094 C 465.164062 473.453125 453.839844 462.132812 439.921875 462.132812 Z M 439.921875 494.46875 C 436.011719 494.46875 432.828125 491.285156 432.828125 487.371094 C 432.828125 483.460938 436.011719 480.277344 439.921875 480.277344 C 443.835938 480.277344 447.019531 483.460938 447.019531 487.371094 C 447.019531 491.285156 443.835938 494.46875 439.921875 494.46875 Z M 439.921875 494.46875 " fill-opacity="1" fill-rule="nonzero"/></g></svg>