<svg xmlns="http://www.w3.org/2000/svg" xmlns:xlink="http://www.w3.org/1999/xlink" width="1000" zoomAndPan="magnify" viewBox="0 0 750 749.999995" height="1000" preserveAspectRatio="xMidYMid meet" version="1.0"><defs><clipPath id="e452193db1"><path d="M 375 0 C 167.894531 0 0 167.894531 0 375 C 0 582.105469 167.894531 750 375 750 C 582.105469 750 750 582.105469 750 375 C 750 167.894531 582.105469 0 375 0 Z M 375 0 " clip-rule="nonzero"/></clipPath><clipPath id="d118ed3f20"><path d="M 0 0 L 750 0 L 750 750 L 0 750 Z M 0 0 " clip-rule="nonzero"/></clipPath><clipPath id="b55f573fa6"><path d="M 375 0 C 167.894531 0 0 167.894531 0 375 C 0 582.105469 167.894531 750 375 750 C 582.105469 750 750 582.105469 750 375 C 750 167.894531 582.105469 0 375 0 Z M 375 0 " clip-rule="nonzero"/></clipPath><clipPath id="630bbf4e6e"><rect x="0" width="750" y="0" height="750"/></clipPath><clipPath id="ba403ae463"><path d="M 212.273438 205.496094 L 537.773438 205.496094 L 537.773438 544.496094 L 212.273438 544.496094 Z M 212.273438 205.496094 " clip-rule="nonzero"/></clipPath></defs><g clip-path="url(#e452193db1)"><g transform="matrix(1, 0, 0, 1, 0, -0.000000000000042435)"><g clip-path="url(#630bbf4e6e)"><g clip-path="url(#d118ed3f20)"><g clip-path="url(#b55f573fa6)"><rect x="-165" width="1080" fill="#d52120" height="1079.999992" y="-164.999999" fill-opacity="1"/></g></g></g></g></g><g clip-path="url(#ba403ae463)"><path fill="#ffffff" d="M 244.996094 517.386719 L 256.75 517.386719 L 256.75 475.585938 C 256.75 473.160156 258.71875 471.191406 261.148438 471.191406 L 302.796875 471.191406 L 302.910156 471.1875 L 303.027344 471.191406 L 344.675781 471.191406 C 347.105469 471.191406 349.074219 473.160156 349.074219 475.585938 L 349.074219 517.386719 L 360.828125 517.386719 L 360.828125 271.425781 L 244.996094 271.425781 Z M 221.046875 535.496094 L 528.867188 535.496094 L 528.867188 526.179688 L 221.046875 526.179688 Z M 533.261719 544.289062 L 216.652344 544.289062 C 214.222656 544.289062 212.253906 542.320312 212.253906 539.894531 L 212.253906 521.78125 C 212.253906 519.355469 214.222656 517.386719 216.652344 517.386719 L 236.199219 517.386719 L 236.199219 267.027344 C 236.199219 264.601562 238.171875 262.632812 240.597656 262.632812 L 321.28125 262.632812 L 321.28125 210.160156 C 321.292969 209.734375 321.355469 209.300781 321.488281 208.871094 C 322.199219 206.554688 324.652344 205.257812 326.96875 205.96875 L 455.148438 245.359375 C 457.109375 245.800781 458.574219 247.554688 458.574219 249.648438 L 458.574219 307.707031 L 509.320312 307.707031 C 511.746094 307.707031 513.714844 309.675781 513.714844 312.105469 L 513.714844 517.386719 L 533.261719 517.386719 C 535.691406 517.386719 537.660156 519.355469 537.660156 521.78125 L 537.660156 539.894531 C 537.660156 542.320312 535.691406 544.289062 533.261719 544.289062 Z M 307.308594 479.984375 L 340.28125 479.984375 L 340.28125 517.386719 L 307.308594 517.386719 Z M 298.515625 517.386719 L 265.542969 517.386719 L 265.542969 479.984375 L 298.515625 479.984375 Z M 261.148438 455.839844 C 258.722656 455.839844 256.753906 453.871094 256.753906 451.441406 C 256.753906 449.015625 258.722656 447.046875 261.148438 447.046875 L 344.675781 447.046875 C 347.105469 447.046875 349.074219 449.015625 349.074219 451.441406 C 349.074219 453.871094 347.105469 455.839844 344.675781 455.839844 Z M 261.148438 430.34375 C 258.722656 430.34375 256.753906 428.375 256.753906 425.949219 C 256.753906 423.519531 258.722656 421.550781 261.148438 421.550781 L 344.675781 421.550781 C 347.105469 421.550781 349.074219 423.519531 349.074219 425.949219 C 349.074219 428.375 347.105469 430.34375 344.675781 430.34375 Z M 261.148438 404.847656 C 258.722656 404.847656 256.753906 402.878906 256.753906 400.453125 C 256.753906 398.023438 258.722656 396.054688 261.148438 396.054688 L 344.675781 396.054688 C 347.105469 396.054688 349.074219 398.023438 349.074219 400.453125 C 349.074219 402.878906 347.105469 404.847656 344.675781 404.847656 Z M 261.148438 379.359375 C 258.722656 379.359375 256.753906 377.390625 256.753906 374.960938 C 256.753906 372.535156 258.722656 370.5625 261.148438 370.5625 L 344.675781 370.5625 C 347.105469 370.5625 349.074219 372.535156 349.074219 374.960938 C 349.074219 377.390625 347.105469 379.359375 344.675781 379.359375 Z M 261.148438 353.863281 C 258.722656 353.863281 256.753906 351.894531 256.753906 349.464844 C 256.753906 347.039062 258.722656 345.070312 261.148438 345.070312 L 344.675781 345.070312 C 347.105469 345.070312 349.074219 347.039062 349.074219 349.464844 C 349.074219 351.894531 347.105469 353.863281 344.675781 353.863281 Z M 261.148438 328.367188 C 258.722656 328.367188 256.753906 326.398438 256.753906 323.972656 C 256.753906 321.542969 258.722656 319.574219 261.148438 319.574219 L 344.675781 319.574219 C 347.105469 319.574219 349.074219 321.542969 349.074219 323.972656 C 349.074219 326.398438 347.105469 328.367188 344.675781 328.367188 Z M 261.148438 302.875 C 258.722656 302.875 256.753906 300.90625 256.753906 298.476562 C 256.753906 296.050781 258.722656 294.082031 261.148438 294.082031 L 344.675781 294.082031 C 347.105469 294.082031 349.074219 296.050781 349.074219 298.476562 C 349.074219 300.90625 347.105469 302.875 344.675781 302.875 Z M 444.464844 517.386719 L 444.464844 479.984375 L 430.078125 479.984375 L 430.078125 517.386719 Z M 421.285156 517.386719 L 421.285156 475.585938 C 421.285156 473.160156 423.253906 471.191406 425.683594 471.191406 L 448.863281 471.191406 C 451.289062 471.191406 453.261719 473.160156 453.261719 475.585938 L 453.261719 517.386719 L 461.375 517.386719 L 461.375 475.585938 C 461.375 473.160156 463.34375 471.191406 465.773438 471.191406 L 488.953125 471.191406 C 491.378906 471.191406 493.347656 473.160156 493.347656 475.585938 L 493.347656 517.386719 L 504.921875 517.386719 L 504.921875 316.5 L 369.625 316.5 L 369.625 517.386719 L 381.195312 517.386719 L 381.195312 475.585938 C 381.195312 473.160156 383.164062 471.191406 385.59375 471.191406 L 408.773438 471.191406 C 411.199219 471.191406 413.167969 473.160156 413.167969 475.585938 L 413.167969 517.386719 Z M 484.554688 517.386719 L 484.554688 479.984375 L 470.167969 479.984375 L 470.167969 517.386719 Z M 404.375 517.386719 L 404.375 479.984375 L 389.988281 479.984375 L 389.988281 517.386719 Z M 430.078125 441.136719 L 444.464844 441.136719 L 444.464844 426.75 L 430.078125 426.75 Z M 448.863281 449.929688 C 451.289062 449.929688 453.261719 447.960938 453.261719 445.53125 L 453.261719 422.351562 C 453.261719 419.921875 451.289062 417.953125 448.863281 417.953125 L 425.683594 417.953125 C 423.253906 417.953125 421.285156 419.921875 421.285156 422.351562 L 421.285156 445.53125 C 421.285156 447.960938 423.253906 449.929688 425.683594 449.929688 Z M 470.167969 441.136719 L 484.554688 441.136719 L 484.554688 426.75 L 470.167969 426.75 Z M 488.953125 449.929688 C 491.378906 449.929688 493.347656 447.960938 493.347656 445.53125 L 493.347656 422.351562 C 493.347656 419.921875 491.378906 417.953125 488.953125 417.953125 L 465.773438 417.953125 C 463.34375 417.953125 461.375 419.921875 461.375 422.351562 L 461.375 445.53125 C 461.375 447.960938 463.34375 449.929688 465.773438 449.929688 Z M 389.988281 441.136719 L 404.375 441.136719 L 404.375 426.75 L 389.988281 426.75 Z M 408.773438 449.929688 C 411.199219 449.929688 413.167969 447.960938 413.167969 445.53125 L 413.167969 422.351562 C 413.167969 419.921875 411.199219 417.953125 408.773438 417.953125 L 385.59375 417.953125 C 383.164062 417.953125 381.195312 419.921875 381.195312 422.351562 L 381.195312 445.53125 C 381.195312 447.960938 383.164062 449.929688 385.59375 449.929688 Z M 430.078125 359.09375 L 444.464844 359.09375 L 444.464844 344.710938 L 430.078125 344.710938 Z M 448.863281 367.890625 C 451.289062 367.890625 453.261719 365.917969 453.261719 363.492188 L 453.261719 340.3125 C 453.261719 337.886719 451.289062 335.917969 448.863281 335.917969 L 425.683594 335.917969 C 423.253906 335.917969 421.285156 337.886719 421.285156 340.3125 L 421.285156 363.492188 C 421.285156 365.917969 423.253906 367.890625 425.683594 367.890625 Z M 470.167969 359.09375 L 484.554688 359.09375 L 484.554688 344.710938 L 470.167969 344.710938 Z M 488.953125 367.890625 C 491.378906 367.890625 493.347656 365.917969 493.347656 363.492188 L 493.347656 340.3125 C 493.347656 337.886719 491.378906 335.917969 488.953125 335.917969 L 465.773438 335.917969 C 463.34375 335.917969 461.375 337.886719 461.375 340.3125 L 461.375 363.492188 C 461.375 365.917969 463.34375 367.890625 465.773438 367.890625 Z M 389.988281 359.09375 L 404.375 359.09375 L 404.375 344.710938 L 389.988281 344.710938 Z M 408.773438 367.890625 C 411.199219 367.890625 413.167969 365.917969 413.167969 363.492188 L 413.167969 340.3125 C 413.167969 337.886719 411.199219 335.917969 408.773438 335.917969 L 385.59375 335.917969 C 383.164062 335.917969 381.195312 337.886719 381.195312 340.3125 L 381.195312 363.492188 C 381.195312 365.917969 383.164062 367.890625 385.59375 367.890625 Z M 430.078125 400.117188 L 444.464844 400.117188 L 444.464844 385.730469 L 430.078125 385.730469 Z M 448.863281 408.910156 C 451.289062 408.910156 453.261719 406.941406 453.261719 404.511719 L 453.261719 381.332031 C 453.261719 378.90625 451.289062 376.9375 448.863281 376.9375 L 425.683594 376.9375 C 423.253906 376.9375 421.285156 378.90625 421.285156 381.332031 L 421.285156 404.511719 C 421.285156 406.941406 423.253906 408.910156 425.683594 408.910156 Z M 470.167969 400.117188 L 484.554688 400.117188 L 484.554688 385.730469 L 470.167969 385.730469 Z M 488.953125 408.910156 C 491.378906 408.910156 493.347656 406.941406 493.347656 404.511719 L 493.347656 381.332031 C 493.347656 378.90625 491.378906 376.9375 488.953125 376.9375 L 465.773438 376.9375 C 463.34375 376.9375 461.375 378.90625 461.375 381.332031 L 461.375 404.511719 C 461.375 406.941406 463.34375 408.910156 465.773438 408.910156 Z M 389.988281 400.117188 L 404.375 400.117188 L 404.375 385.730469 L 389.988281 385.730469 Z M 408.773438 408.910156 C 411.199219 408.910156 413.167969 406.941406 413.167969 404.511719 L 413.167969 381.332031 C 413.167969 378.90625 411.199219 376.9375 408.773438 376.9375 L 385.59375 376.9375 C 383.164062 376.9375 381.195312 378.90625 381.195312 381.332031 L 381.195312 404.511719 C 381.195312 406.941406 383.164062 408.910156 385.59375 408.910156 Z M 449.78125 307.707031 L 369.625 307.707031 L 369.625 267.027344 C 369.625 264.601562 367.65625 262.632812 365.226562 262.632812 L 330.074219 262.632812 L 330.074219 216.097656 L 449.78125 252.882812 Z M 449.78125 307.707031 " fill-opacity="1" fill-rule="evenodd"/></g></svg>