<svg xmlns="http://www.w3.org/2000/svg" xmlns:xlink="http://www.w3.org/1999/xlink" width="1000" zoomAndPan="magnify" viewBox="0 0 750 749.999995" height="1000" preserveAspectRatio="xMidYMid meet" version="1.0"><defs><clipPath id="debc4d7067"><path d="M 375 0 C 167.894531 0 0 167.894531 0 375 C 0 582.105469 167.894531 750 375 750 C 582.105469 750 750 582.105469 750 375 C 750 167.894531 582.105469 0 375 0 Z M 375 0 " clip-rule="nonzero"/></clipPath><clipPath id="eac59e11fe"><path d="M 0 0 L 750 0 L 750 750 L 0 750 Z M 0 0 " clip-rule="nonzero"/></clipPath><clipPath id="18d950cb97"><path d="M 375 0 C 167.894531 0 0 167.894531 0 375 C 0 582.105469 167.894531 750 375 750 C 582.105469 750 750 582.105469 750 375 C 750 167.894531 582.105469 0 375 0 Z M 375 0 " clip-rule="nonzero"/></clipPath><clipPath id="785c3c0d32"><rect x="0" width="750" y="0" height="750"/></clipPath><clipPath id="edd41deed3"><path d="M 336 273.605469 L 414 273.605469 L 414 350 L 336 350 Z M 336 273.605469 " clip-rule="nonzero"/></clipPath><clipPath id="f35d21638c"><path d="M 297 356 L 453 356 L 453 476.105469 L 297 476.105469 Z M 297 356 " clip-rule="nonzero"/></clipPath></defs><g clip-path="url(#debc4d7067)"><g transform="matrix(1, 0, 0, 1, 0, -0.000000000000042435)"><g clip-path="url(#785c3c0d32)"><g clip-path="url(#eac59e11fe)"><g clip-path="url(#18d950cb97)"><rect x="-165" width="1080" fill="#d52120" height="1079.999992" y="-164.999999" fill-opacity="1"/></g></g></g></g></g><g clip-path="url(#edd41deed3)"><path fill="#ffffff" d="M 370.074219 274.101562 C 361.21875 275.277344 354.34375 278.683594 348.089844 284.941406 C 327.03125 305.996094 336.566406 341.117188 365.492188 348.734375 C 370.261719 349.972656 379.304688 349.972656 384.632812 348.734375 C 394.851562 346.378906 404.203125 338.824219 408.910156 329.164062 C 412.070312 322.660156 413.058594 318.570312 413 311.882812 C 412.875 292.246094 399.308594 276.949219 379.675781 274.101562 C 374.90625 273.417969 374.96875 273.417969 370.074219 274.101562 Z M 370.074219 274.101562 " fill-opacity="1" fill-rule="nonzero"/></g><path fill="#ffffff" d="M 223.78125 299.804688 C 216.164062 302.28125 209.535156 308.972656 207.183594 316.714844 C 203.28125 329.347656 208.917969 342.417969 220.683594 347.992188 C 224.585938 349.847656 225.269531 349.972656 231.648438 349.972656 C 238.027344 349.972656 238.832031 349.789062 242.050781 348.300781 C 244.035156 347.371094 246.511719 345.886719 247.503906 345.019531 C 249.300781 343.53125 249.359375 343.347656 249.546875 336.84375 C 249.792969 329.597656 251.21875 323.898438 254.128906 318.507812 L 255.679688 315.597656 L 254.253906 312.4375 C 252.210938 308.105469 247.625 303.707031 242.671875 301.230469 C 239.019531 299.433594 237.902344 299.183594 232.636719 299.0625 C 228.675781 298.9375 225.761719 299.183594 223.78125 299.804688 Z M 223.78125 299.804688 " fill-opacity="1" fill-rule="nonzero"/><path fill="#ffffff" d="M 510.363281 299.929688 C 503.550781 302.40625 498.039062 306.988281 495.1875 312.5 L 493.824219 315.101562 L 495.746094 318.757812 C 498.59375 324.023438 500.144531 330.773438 500.144531 337.832031 L 500.144531 343.78125 L 503.179688 345.824219 C 510.488281 350.839844 520.832031 351.707031 528.820312 347.992188 C 542.011719 341.796875 547.339844 326.1875 540.710938 312.75 C 538.109375 307.359375 534.394531 303.832031 528.757812 301.167969 C 525.226562 299.554688 523.742188 299.183594 519.035156 299.0625 C 514.882812 298.875 512.65625 299.121094 510.363281 299.929688 Z M 510.363281 299.929688 " fill-opacity="1" fill-rule="nonzero"/><path fill="#ffffff" d="M 284.789062 308.476562 C 273.949219 310.828125 264.785156 320.121094 262.304688 331.144531 C 261.871094 333.1875 261.625 336.964844 261.808594 340.25 C 262.058594 345.328125 262.304688 346.378906 264.660156 351.089844 C 276.367188 374.746094 310.429688 372.457031 319.351562 347.433594 C 321.269531 342.167969 321.269531 334.054688 319.351562 328.417969 C 315.820312 317.953125 307.707031 310.707031 297.050781 308.414062 C 292.097656 307.359375 289.804688 307.359375 284.789062 308.476562 Z M 284.789062 308.476562 " fill-opacity="1" fill-rule="nonzero"/><path fill="#ffffff" d="M 454.308594 307.917969 C 444.523438 309.777344 436.285156 315.847656 432.074219 324.332031 C 429.597656 329.285156 428.667969 334.054688 429.101562 340.0625 C 430.03125 355.050781 441.488281 366.386719 456.789062 367.4375 C 465.644531 368.058594 473.078125 365.332031 479.269531 359.140625 C 486.578125 351.894531 489.613281 341.921875 487.632812 332.199219 C 485.277344 320.863281 478.527344 312.933594 468.308594 309.40625 C 464.777344 308.226562 457.160156 307.421875 454.308594 307.917969 Z M 454.308594 307.917969 " fill-opacity="1" fill-rule="nonzero"/><g clip-path="url(#f35d21638c)"><path fill="#ffffff" d="M 344.0625 356.722656 C 334.398438 358.890625 328.578125 362.050781 321.703125 368.863281 C 313.21875 377.347656 308.199219 387.445312 304.175781 404.230469 C 300.582031 419.28125 298.476562 436.746094 297.796875 458.113281 L 297.425781 470.875 L 301.386719 471.554688 C 307.332031 472.609375 319.410156 473.972656 332.605469 475.210938 C 349.761719 476.757812 399.308594 476.757812 417.148438 475.210938 C 429.347656 474.15625 447.125 472.113281 450.839844 471.308594 L 452.636719 470.9375 L 452.203125 459.972656 C 449.601562 392.585938 436.410156 363.164062 405.8125 356.722656 C 402.921875 356.144531 400.011719 356.457031 397.082031 357.652344 C 387.542969 361.617188 379.058594 362.917969 369.457031 361.925781 C 363.695312 361.371094 355.519531 359.140625 351.371094 357.035156 C 348.769531 355.734375 348.707031 355.734375 344.0625 356.722656 Z M 344.0625 356.722656 " fill-opacity="1" fill-rule="nonzero"/></g><path fill="#ffffff" d="M 208.730469 358.273438 C 191.078125 363.476562 182.285156 379.394531 179.25 411.476562 C 178.816406 415.8125 178.441406 419.40625 178.382812 419.527344 C 178.320312 419.589844 175.902344 419.03125 173.054688 418.226562 C 170.207031 417.359375 166.425781 416.492188 164.695312 416.246094 C 158.746094 415.441406 155.15625 418.414062 155.15625 424.050781 C 155.15625 429.6875 157.386719 429.808594 170.640625 435.261719 C 184.019531 440.773438 195.289062 444.984375 207.863281 449.257812 L 216.90625 452.355469 L 217.339844 447.027344 C 219.507812 418.597656 225.082031 397.914062 234 384.65625 C 239.328125 376.792969 247.316406 369.980469 255.492188 366.386719 L 258.960938 364.898438 L 257.042969 361.617188 C 256.050781 359.820312 254.75 358.210938 254.253906 358.085938 C 251.960938 357.28125 248.617188 357.714844 244.34375 359.324219 C 240.132812 360.9375 238.957031 361.121094 231.648438 361.121094 C 224.339844 361.121094 223.160156 360.9375 218.949219 359.386719 C 212.632812 356.972656 212.878906 357.035156 208.730469 358.273438 Z M 208.730469 358.273438 " fill-opacity="1" fill-rule="nonzero"/><path fill="#ffffff" d="M 497.480469 357.714844 C 496.242188 357.964844 495.066406 358.273438 495.003906 358.398438 C 493.949219 359.695312 490.789062 364.652344 490.976562 364.714844 C 491.039062 364.777344 493.269531 365.828125 495.808594 367.066406 C 502 370.039062 509.0625 375.738281 513.273438 381.128906 C 522.75 393.207031 529.007812 412.46875 531.421875 436.621094 C 532.90625 451.238281 532.96875 451.859375 533.652344 451.859375 C 536.003906 451.859375 568.957031 439.71875 584.8125 433.03125 C 592.863281 429.625 594.347656 428.261719 594.78125 424.113281 C 594.96875 421.570312 594.78125 420.890625 593.421875 419.21875 C 590.261719 415.503906 585.183594 415.253906 576.015625 418.414062 C 574.035156 419.09375 572.175781 419.652344 571.929688 419.652344 C 571.679688 419.652344 571.308594 418.042969 571.0625 416.058594 C 569.015625 396.921875 566.726562 386.332031 562.824219 378.03125 C 557.496094 366.757812 550.746094 360.6875 540.464844 358.023438 C 536.5625 357.035156 536.5 357.035156 532.722656 358.519531 C 523.804688 362.113281 513.707031 362.359375 504.789062 359.140625 C 501.074219 357.777344 499.277344 357.46875 497.480469 357.714844 Z M 497.480469 357.714844 " fill-opacity="1" fill-rule="nonzero"/><path fill="#ffffff" d="M 265.527344 375.675781 C 243.230469 381.5 232.203125 404.414062 229.230469 450.992188 L 228.921875 456.007812 L 237.097656 458.238281 C 248.308594 461.335938 256.667969 463.253906 271.90625 466.414062 L 284.914062 469.078125 L 285.65625 455.019531 C 287.265625 423.246094 291.042969 400.761719 297.425781 384.96875 L 299.777344 379.082031 L 290.796875 379.082031 C 281.382812 379.019531 281.507812 379.082031 270.976562 374.871094 C 270.480469 374.6875 268.003906 375.058594 265.527344 375.675781 Z M 265.527344 375.675781 " fill-opacity="1" fill-rule="nonzero"/><path fill="#ffffff" d="M 475.679688 376.046875 C 470.414062 378.464844 465.644531 379.457031 458.460938 379.457031 C 451.273438 379.457031 451.460938 379.269531 451.089844 379.023438 C 450.285156 378.464844 450.40625 378.960938 453.320312 387.074219 C 458.957031 402.371094 462.363281 422.191406 463.601562 446.59375 C 463.972656 453.71875 464.46875 461.707031 464.714844 464.308594 L 465.148438 469.015625 L 479.703125 466.105469 C 493.207031 463.378906 509.558594 459.414062 517.421875 456.9375 L 520.769531 455.886719 L 520.335938 447.832031 C 519.34375 427.703125 514.824219 407.511719 508.628906 395.929688 C 505.59375 390.230469 499.398438 383.171875 494.753906 380.199219 C 491.65625 378.277344 484.472656 375.554688 480.632812 374.871094 C 479.457031 374.6875 477.660156 375.121094 475.679688 376.046875 Z M 475.679688 376.046875 " fill-opacity="1" fill-rule="nonzero"/></svg>