<?xml version="1.0" standalone="no"?>
<!DOCTYPE svg PUBLIC "-//W3C//DTD SVG 20010904//EN"
 "http://www.w3.org/TR/2001/REC-SVG-20010904/DTD/svg10.dtd">
<svg version="1.0" xmlns="http://www.w3.org/2000/svg"
 width="1000.000000pt" height="1000.000000pt" viewBox="0 0 1000.000000 1000.000000"
 preserveAspectRatio="xMidYMid meet">

<g transform="translate(0.000000,1000.000000) scale(0.100000,-0.100000)"
fill="#000000" stroke="none">
<path d="M0 5000 l0 -5000 5000 0 5000 0 0 5000 0 5000 -5000 0 -5000 0 0
-5000z m4710 2730 l25 -75 90 -5 90 -5 -65 -49 c-36 -27 -68 -52 -73 -56 -4
-3 6 -45 22 -93 17 -48 25 -87 20 -87 -6 0 -36 19 -67 43 -31 24 -63 47 -69
51 -8 4 -40 -13 -79 -44 -37 -27 -70 -50 -74 -50 -4 0 3 35 16 78 13 42 24 82
24 89 0 6 -32 36 -71 67 l-71 55 93 3 93 3 28 85 c15 47 28 87 28 90 2 8 12
-18 40 -100z m590 7 l26 -82 93 -3 93 -3 -71 -55 c-39 -31 -71 -61 -71 -67 0
-7 11 -47 24 -89 13 -43 20 -78 16 -78 -4 0 -37 23 -74 50 -39 31 -71 48 -79
44 -6 -4 -38 -27 -69 -51 -31 -24 -61 -43 -67 -43 -5 0 3 39 20 87 16 48 26
90 22 93 -5 4 -37 29 -73 56 l-65 49 90 5 90 5 29 88 c15 48 31 86 34 83 3 -4
17 -43 32 -89z m-1281 -188 l28 -84 89 -5 89 -5 -65 -49 c-36 -27 -68 -52 -73
-56 -4 -3 6 -45 22 -93 17 -48 26 -87 22 -87 -4 0 -38 23 -74 50 -36 28 -69
50 -72 50 -3 0 -36 -22 -72 -50 -36 -27 -69 -50 -73 -50 -5 0 2 33 15 73 13
39 25 79 27 89 2 11 -21 34 -67 70 l-70 53 90 5 90 5 28 88 c16 49 31 87 33
84 2 -2 17 -42 33 -88z m1969 0 l27 -84 90 -5 90 -5 -70 -53 c-46 -36 -69 -59
-67 -70 2 -10 14 -50 27 -89 13 -40 20 -73 15 -73 -4 0 -37 23 -73 50 -36 28
-69 50 -72 50 -3 0 -36 -22 -72 -50 -36 -27 -70 -50 -74 -50 -4 0 5 39 22 87
16 48 26 90 22 93 -5 4 -37 29 -73 56 l-65 49 89 5 89 5 30 88 c16 49 31 86
34 84 2 -3 16 -42 31 -88z m-2545 -419 l27 -89 92 -3 92 -3 -72 -53 c-40 -30
-72 -57 -72 -60 0 -4 11 -43 25 -87 13 -43 22 -81 20 -83 -2 -3 -36 19 -75 48
l-70 52 -70 -52 c-39 -29 -73 -51 -75 -48 -3 2 6 40 20 84 14 43 25 82 25 86
0 3 -32 30 -72 60 l-72 53 92 3 92 3 27 89 c15 50 30 90 33 90 3 0 17 -41 33
-90z m3133 -15 l28 -85 51 0 c83 0 125 -10 125 -30 0 -14 -52 -61 -122 -110
-4 -3 4 -41 17 -83 14 -43 25 -84 25 -92 0 -26 -40 -16 -99 25 -31 22 -60 40
-64 40 -4 0 -36 -18 -71 -40 -101 -64 -111 -55 -77 69 l19 69 -64 53 c-35 29
-64 60 -64 70 0 19 43 29 125 29 l51 0 28 85 c21 67 31 85 46 85 15 0 25 -18
46 -85z m-2576 -1097 c164 -60 289 -190 346 -358 14 -40 19 -84 19 -165 0 -81
-5 -125 -19 -165 -57 -168 -180 -296 -346 -359 -56 -21 -81 -25 -185 -25 -104
0 -129 4 -185 25 -166 63 -289 191 -346 359 -14 40 -19 84 -19 165 0 81 5 125
19 165 65 194 225 338 421 380 71 16 223 4 295 -22z m2593 -85 c9 -135 9 -443
0 -443 -5 0 -311 -36 -682 -80 -371 -44 -677 -77 -679 -75 -6 6 -16 525 -11
525 2 1 303 38 669 84 366 46 672 84 681 85 13 1 17 -16 22 -96z m-238 -974
c76 -14 153 -48 229 -103 69 -49 132 -143 184 -276 46 -118 57 -175 57 -305 0
-111 -4 -132 -44 -275 -71 -255 -106 -330 -220 -472 -243 -303 -720 -573
-1154 -655 -128 -24 -504 -24 -668 0 -256 38 -600 174 -804 318 -227 162 -456
449 -565 713 -23 54 -38 102 -33 106 24 24 389 147 401 136 2 -3 22 -44 43
-91 89 -201 266 -413 444 -530 170 -112 327 -182 485 -215 138 -29 472 -21
556 15 51 21 103 82 141 164 54 117 61 141 83 294 49 329 106 560 181 726 95
211 301 414 455 450 55 13 160 13 229 0z"/>
<path d="M6496 7090 l-28 -80 -42 -1 c-22 0 -61 -4 -85 -7 l-43 -7 66 -53 c36
-30 66 -57 66 -60 0 -3 -9 -39 -21 -80 -11 -40 -19 -76 -16 -78 2 -2 33 15 68
38 35 22 69 41 75 41 5 0 38 -19 73 -42 34 -24 64 -41 66 -39 2 2 -7 39 -20
81 -14 43 -25 81 -25 85 1 4 30 30 66 57 l65 50 -43 7 c-24 3 -62 7 -84 7
l-42 1 -28 80 c-16 44 -31 80 -35 80 -3 0 -18 -36 -33 -80z"/>
<path d="M6225 4506 c-167 -73 -266 -355 -310 -880 l-7 -79 79 42 c242 130
402 331 438 550 27 170 18 254 -37 317 -54 61 -103 76 -163 50z"/>
</g>
</svg>
